{
    "asset" : {
        "generator" : "Khronos glTF Blender I/O v1.5.17",
        "version" : "2.0"
    },
    "scene" : 0,
    "scenes" : [
        {
            "name" : "Scene",
            "nodes" : [
                0
            ]
        }
    ],
    "nodes" : [
        {
            "mesh" : 0,
            "name" : "Pan3",
            "rotation" : [
                0.7071068286895752,
                0,
                0,
                0.7071067094802856
            ]
        }
    ],
    "materials" : [
        {
            "doubleSided" : true,
            "name" : "Pan3",
            "normalTexture" : {
                "index" : 0,
                "scale" : 0.30000001192092896
            },
            "pbrMetallicRoughness" : {
                "baseColorTexture" : {
                    "index" : 1
                },
                "metallicFactor" : 0,
                "roughnessFactor" : 0.8945907354354858
            }
        }
    ],
    "meshes" : [
        {
            "name" : "Pan3",
            "primitives" : [
                {
                    "attributes" : {
                        "POSITION" : 0,
                        "NORMAL" : 1,
                        "TEXCOORD_0" : 2
                    },
                    "indices" : 3,
                    "material" : 0
                }
            ]
        }
    ],
    "textures" : [
        {
            "sampler" : 0,
            "source" : 0
        },
        {
            "sampler" : 0,
            "source" : 1
        }
    ],
    "images" : [
        {
            "mimeType" : "image/png",
            "name" : "Map__45_Normal_Bump",
            "uri" : "Map__45_Normal_Bump.png"
        },
        {
            "mimeType" : "image/png",
            "name" : "Pan3Metal",
            "uri" : "Pan3Metal.png"
        }
    ],
    "accessors" : [
        {
            "bufferView" : 0,
            "componentType" : 5126,
            "count" : 972,
            "max" : [
                8.238300323486328,
                3.889699935913086,
                3.269200086593628
            ],
            "min" : [
                -3.269200086593628,
                0.007799999788403511,
                -3.269200086593628
            ],
            "type" : "VEC3"
        },
        {
            "bufferView" : 1,
            "componentType" : 5126,
            "count" : 972,
            "type" : "VEC3"
        },
        {
            "bufferView" : 2,
            "componentType" : 5126,
            "count" : 972,
            "type" : "VEC2"
        },
        {
            "bufferView" : 3,
            "componentType" : 5123,
            "count" : 4332,
            "type" : "SCALAR"
        }
    ],
    "bufferViews" : [
        {
            "buffer" : 0,
            "byteLength" : 11664,
            "byteOffset" : 0
        },
        {
            "buffer" : 0,
            "byteLength" : 11664,
            "byteOffset" : 11664
        },
        {
            "buffer" : 0,
            "byteLength" : 7776,
            "byteOffset" : 23328
        },
        {
            "buffer" : 0,
            "byteLength" : 8664,
            "byteOffset" : 31104
        }
    ],
    "samplers" : [
        {
            "magFilter" : 9729,
            "minFilter" : 9987
        }
    ],
    "buffers" : [
        {
            "byteLength" : 39768,
            "uri" : "test3.bin"
        }
    ]
}
